<svg width="31" height="30" viewBox="0 0 31 30" fill="none" xmlns="http://www.w3.org/2000/svg">
<path d="M19.9279 13.9105C17.5191 13.9105 15.9067 12.2784 15.9067 10.3219C15.9067 8.36535 17.5191 6.73328 19.9279 6.73328C22.3465 6.73328 23.9589 8.36535 23.9589 10.3219C23.9589 12.2784 22.3465 13.9105 19.9279 13.9105ZM19.9279 12.829C21.7271 12.829 22.7791 11.7475 22.7791 10.3219C22.7791 8.89626 21.7271 7.81477 19.9279 7.81477C18.1287 7.81477 17.0865 8.89626 17.0865 10.3219C17.0865 11.7475 18.1287 12.829 19.9279 12.829Z" fill="#3A4651"/>
<path d="M23.9592 10.3218C23.9592 8.39589 22.3968 6.7843 20.041 6.73442L19.9282 6.73322C17.5195 6.73322 15.907 8.36533 15.907 10.3218L15.9082 10.4133C15.9568 12.2985 17.5067 13.8601 19.8159 13.9092L19.9282 13.9104C22.309 13.9104 23.9086 12.3289 23.958 10.4133L23.9592 10.3218ZM22.6038 10.3218C22.6038 9.65396 22.3585 9.0755 21.9097 8.66292C21.4601 8.2496 20.7926 7.99024 19.9282 7.99023C19.0639 7.99023 18.3989 8.24952 17.9519 8.66258C17.5057 9.07494 17.2623 9.65344 17.2623 10.3218C17.2623 10.9902 17.5057 11.5687 17.9519 11.981C18.3989 12.3941 19.0639 12.6534 19.9282 12.6534V12.8289L19.8444 12.8281C18.1244 12.7956 17.119 11.7588 17.0876 10.3884L17.0868 10.3218C17.0868 8.89624 18.129 7.81469 19.9282 7.81469L20.012 7.81554C21.76 7.84863 22.7794 8.91851 22.7794 10.3218L22.7786 10.3884C22.7463 11.7809 21.6993 12.8289 19.9282 12.8289V12.6534C20.7926 12.6534 21.4601 12.3941 21.9097 11.9808C22.3585 11.5682 22.6038 10.9897 22.6038 10.3218ZM24.1348 10.3218C24.1348 12.3879 22.4306 14.0859 19.9282 14.0859C17.4353 14.0859 15.7315 12.3876 15.7315 10.3218C15.7315 8.25603 17.4353 6.55768 19.9282 6.55768C22.4307 6.5577 24.1348 8.25577 24.1348 10.3218Z" fill="#3A4651"/>
<path d="M9.08506 6.88086H10.2649V12.6816H14.3057L14.5024 13.7631H9.08506V6.88086Z" fill="#3A4651"/>
<path d="M10.2646 6.88087H9.08483V13.7631H14.5021L14.3055 12.6816H10.2646V6.88087ZM10.4401 12.5061H14.452L14.7124 13.9386H8.90928V6.70532H10.4401V12.5061Z" fill="#3A4651"/>
<path d="M11.697 23.1566C9.28818 23.1566 7.67577 21.5245 7.67577 19.568C7.67577 17.6115 9.28818 15.9794 11.697 15.9794C14.1156 15.9794 15.728 17.6115 15.728 19.568C15.728 21.5245 14.1156 23.1566 11.697 23.1566ZM11.697 22.0751C13.4962 22.0751 14.5482 20.9936 14.5482 19.568C14.5482 18.1424 13.4962 17.0609 11.697 17.0609C9.89775 17.0609 8.85558 18.1424 8.85558 19.568C8.85558 20.9936 9.89775 22.0751 11.697 22.0751Z" fill="#3A4651"/>
<path d="M15.7278 19.5681C15.7278 17.6421 14.1653 16.0305 11.8095 15.9806L11.6968 15.9794C9.28799 15.9794 7.67554 17.6115 7.67554 19.5681L7.67674 19.6595C7.72538 21.5448 9.27521 23.1063 11.5844 23.1554L11.6968 23.1566C14.0776 23.1566 15.6771 21.5752 15.7266 19.6595L15.7278 19.5681ZM14.3724 19.5681C14.3724 18.9002 14.127 18.3217 13.6782 17.9091C13.2287 17.4958 12.5611 17.2365 11.6968 17.2364C10.8324 17.2364 10.1675 17.4957 9.72044 17.9088C9.27419 18.3212 9.03087 18.8997 9.03087 19.5681C9.03087 20.2364 9.2742 20.8149 9.72044 21.2272C10.1675 21.6403 10.8324 21.8996 11.6968 21.8996V22.0751L11.6129 22.0744C9.89294 22.0418 8.88757 21.005 8.85609 19.6346L8.85532 19.5681C8.85532 18.1425 9.89756 17.0609 11.6968 17.0609L11.7805 17.0618C13.5286 17.0948 14.5479 18.1647 14.5479 19.5681L14.5471 19.6346C14.5149 21.0271 13.4679 22.0751 11.6968 22.0751V21.8996C12.5611 21.8996 13.2287 21.6403 13.6782 21.227C14.127 20.8144 14.3724 20.2359 14.3724 19.5681ZM15.9033 19.5681C15.9033 21.6341 14.1992 23.3321 11.6968 23.3321C9.20388 23.3321 7.50002 21.6339 7.5 19.5681C7.5 17.5022 9.20386 15.8039 11.6968 15.8039C14.1992 15.8039 15.9033 17.502 15.9033 19.5681Z" fill="#3A4651"/>
<path d="M17.6078 16.1202H18.7899V18.7702L22.7205 16.1202H24.5923L21.4596 18.2382L24.6612 23.0161H23.2328L20.5139 18.8786L18.7899 20.041V23.0161H17.6078V16.1202Z" fill="#3A4651"/>
<path d="M17.6081 16.1202V23.0161H18.7902V20.041L20.5141 18.8785L23.2331 23.0161H24.6615L21.4598 18.2383L24.5925 16.1202H22.7208L18.7902 18.7702V16.1202H17.6081ZM18.9658 18.4401L22.6672 15.9447H25.1656L21.703 18.2857L24.9904 23.1916H23.1384L20.4649 19.1234L18.9658 20.1344V23.1916H17.4325V15.9447H18.9658V18.4401Z" fill="#3A4651"/>
</svg>
