<svg width="21" height="20" viewBox="0 0 21 20" fill="none" xmlns="http://www.w3.org/2000/svg">
<path d="M3.05298 18.9411C3.48469 17.2098 4.4736 15.6684 5.86741 14.5542C7.26123 13.4401 8.98265 12.8151 10.7666 12.7754C12.5505 12.7358 14.298 13.2837 15.74 14.3347C17.1819 15.3858 18.2384 17.2899 18.7466 19.0004" stroke="#3A4651" stroke-width="1.2" stroke-linecap="square"/>
<path d="M11.2917 9.36719H10.5045C9.51812 9.36719 8.57214 8.97535 7.87466 8.27788C7.17718 7.5804 6.78535 6.63442 6.78535 5.64804V5.30762C6.78535 4.23886 7.20991 3.21384 7.96565 2.45811C8.72138 1.70238 9.74637 1.27782 10.8151 1.27782C11.3668 1.27726 11.9132 1.38553 12.4231 1.5964C12.9329 1.80727 13.3961 2.11661 13.7862 2.50673C14.1763 2.89685 14.4857 3.36007 14.6966 3.86989C14.9074 4.37971 15.0157 4.92611 15.0151 5.47782V5.64804C15.0151 6.63442 14.6233 7.5804 13.9258 8.27788C13.2283 8.97535 12.2824 9.36719 11.296 9.36719H11.2917Z" stroke="#3A4651" stroke-width="1.2" stroke-linecap="square"/>
</svg>
