<svg width="30" height="30" viewBox="0 0 30 30" fill="none" xmlns="http://www.w3.org/2000/svg">
<g clip-path="url(#clip0_98_2174)">
<path d="M6.03516 8.9209H24.0004" stroke="#3A4651" stroke-width="1.2" stroke-linecap="square" stroke-linejoin="round"/>
<path d="M6.03516 15.5449H24.0004" stroke="#3A4651" stroke-width="1.2" stroke-linecap="square" stroke-linejoin="round"/>
<path d="M6.03516 22.1738H24.0004" stroke="#3A4651" stroke-width="1.2" stroke-linecap="square" stroke-linejoin="round"/>
<path d="M18.9605 10.0167C19.5654 10.0167 20.0557 9.5263 20.0557 8.92141C20.0557 8.31652 19.5654 7.82617 18.9605 7.82617C18.3556 7.82617 17.8652 8.31652 17.8652 8.92141C17.8652 9.5263 18.3556 10.0167 18.9605 10.0167Z" fill="#3A4651" stroke="#3A4651" stroke-width="1.07604" stroke-linecap="square" stroke-linejoin="round"/>
<path d="M10.6343 16.671C11.2392 16.671 11.7296 16.1806 11.7296 15.5757C11.7296 14.9708 11.2392 14.4805 10.6343 14.4805C10.0294 14.4805 9.53906 14.9708 9.53906 15.5757C9.53906 16.1806 10.0294 16.671 10.6343 16.671Z" fill="#3A4651" stroke="#3A4651" stroke-width="1.07604" stroke-linecap="square" stroke-linejoin="round"/>
</g>
<defs>
<clipPath id="clip0_98_2174">
<rect width="30" height="30" fill="white"/>
</clipPath>
</defs>
</svg>
