<svg width="190" height="50" viewBox="0 0 190 50" fill="none" xmlns="http://www.w3.org/2000/svg">
<path d="M117.496 0.44043H121.017V8.33322L132.724 0.44043H138.299L128.968 6.74879L138.504 20.9793H134.25L126.151 8.65597L121.017 12.1182V20.9793H117.496V0.44043Z" fill="white"/>
<path d="M103.693 21.4191C96.5048 21.4191 91.6929 16.5484 91.6929 10.7095C91.6929 4.87064 96.5048 0 103.693 0C110.911 0 115.723 4.87064 115.723 10.7095C115.723 16.5484 110.911 21.4191 103.693 21.4191ZM103.693 18.1916C109.063 18.1916 112.202 14.964 112.202 10.7095C112.202 6.45507 109.063 3.22753 103.693 3.22753C98.324 3.22753 95.2138 6.45507 95.2138 10.7095C95.2138 14.964 98.324 18.1916 103.693 18.1916Z" fill="white"/>
<path d="M78.7708 21.4191C71.5822 21.4191 66.7703 16.5484 66.7703 10.7095C66.7703 4.87064 71.5822 0 78.7708 0C85.9888 0 90.8007 4.87064 90.8007 10.7095C90.8007 16.5484 85.9888 21.4191 78.7708 21.4191ZM78.7708 18.1916C84.1403 18.1916 87.2798 14.964 87.2798 10.7095C87.2798 6.45507 84.1403 3.22753 78.7708 3.22753C73.4014 3.22753 70.2912 6.45507 70.2912 10.7095C70.2912 14.964 73.4014 18.1916 78.7708 18.1916Z" fill="white"/>
<path d="M51.4955 0.44043H55.0164V17.7517H67.0757L67.6625 20.9793H51.4955V0.44043Z" fill="white"/>
<path opacity="0.8" d="M27.4282 30.3115V31.1915H23.9282V37.5615H22.9082V30.3115H27.4282ZM30.4821 35.3115V34.9715C28.8321 35.1315 27.7821 35.3815 27.7821 36.1215C27.7821 36.6315 28.1721 36.9715 28.8221 36.9715C29.6721 36.9715 30.4821 36.5815 30.4821 35.3115ZM28.6221 37.6915C27.6121 37.6915 26.7721 37.1315 26.7721 36.1415C26.7721 34.8715 28.2121 34.4915 30.4121 34.2515V34.1215C30.4121 33.1315 29.8721 32.8115 29.1921 32.8115C28.4321 32.8115 28.0021 33.2115 27.9621 33.8815H27.0221C27.1021 32.7215 28.1421 32.0715 29.1821 32.0715C30.6721 32.0715 31.3321 32.7715 31.3221 34.2915L31.3121 35.5315C31.3021 36.4415 31.3421 37.0515 31.4521 37.5615H30.5321C30.5021 37.3615 30.4721 37.1415 30.4621 36.8215C30.1321 37.3815 29.5821 37.6915 28.6221 37.6915ZM32.728 32.1815H33.638V33.0315C33.968 32.4615 34.528 32.0915 35.398 32.0915C36.638 32.0915 37.698 33.1315 37.698 34.8915C37.698 36.6815 36.638 37.6915 35.398 37.6915C34.528 37.6915 33.968 37.3215 33.638 36.7515V39.3115H32.728V32.1815ZM33.598 34.8915C33.598 36.3115 34.358 36.9115 35.168 36.9115C36.098 36.9115 36.708 36.1815 36.708 34.8915C36.708 33.6015 36.098 32.8715 35.168 32.8715C34.358 32.8715 33.598 33.4715 33.598 34.8915ZM43.7541 36.7715V38.7515H42.8741V37.5615H38.9341V38.7515H38.0541V36.7715H38.2941C38.9041 36.7715 39.2241 35.9715 39.3041 33.9115L39.3741 32.1815H43.0041V36.7715H43.7541ZM42.0941 36.7715V32.9715H40.2541L40.2041 34.0015C40.1241 35.5915 39.8941 36.3715 39.4741 36.7715H42.0941ZM49.3714 35.1715H45.2314C45.2614 36.3315 46.1014 36.8915 46.8914 36.8915C47.6914 36.8915 48.1314 36.5315 48.3614 36.0015H49.3014C49.0614 36.9215 48.2014 37.6915 46.8914 37.6915C45.1914 37.6915 44.2514 36.4715 44.2514 34.8815C44.2514 33.1715 45.3914 32.0915 46.8614 32.0915C48.5114 32.0915 49.4814 33.4615 49.3714 35.1715ZM46.8614 32.8715C46.0614 32.8715 45.3214 33.3115 45.2414 34.3915H48.4114C48.3814 33.6315 47.8314 32.8715 46.8614 32.8715ZM50.4917 32.1815H51.4017V33.0315C51.7317 32.4615 52.2917 32.0915 53.1617 32.0915C54.4017 32.0915 55.4617 33.1315 55.4617 34.8915C55.4617 36.6815 54.4017 37.6915 53.1617 37.6915C52.2917 37.6915 51.7317 37.3215 51.4017 36.7515V39.3115H50.4917V32.1815ZM51.3617 34.8915C51.3617 36.3115 52.1217 36.9115 52.9317 36.9115C53.8617 36.9115 54.4717 36.1815 54.4717 34.8915C54.4717 33.6015 53.8617 32.8715 52.9317 32.8715C52.1217 32.8715 51.3617 33.4715 51.3617 34.8915ZM57.2336 34.8915C57.2336 36.3315 58.0136 36.8915 58.8436 36.8915C59.6736 36.8915 60.4536 36.2715 60.4536 34.8915C60.4536 33.4515 59.6736 32.8915 58.8436 32.8915C58.0136 32.8915 57.2336 33.4215 57.2336 34.8915ZM58.8436 32.0915C60.0936 32.0915 61.4236 32.9415 61.4236 34.8915C61.4236 36.8415 60.0936 37.6915 58.8436 37.6915C57.5936 37.6915 56.2636 36.8415 56.2636 34.8915C56.2636 32.9415 57.5936 32.0915 58.8436 32.0915ZM64.982 32.4915C66.202 32.4915 67.252 33.3415 67.252 35.0415C67.252 36.7715 66.142 37.6915 64.822 37.6915C63.432 37.6915 62.292 36.7215 62.292 34.7615V34.1415C62.322 32.2015 62.962 31.0715 65.122 30.6415L66.892 30.2915V31.1015L65.172 31.4715C63.862 31.7615 63.232 32.2515 63.102 33.5915C63.462 32.8415 64.182 32.4915 64.982 32.4915ZM64.822 36.9015C65.702 36.9015 66.282 36.2315 66.282 35.0615C66.282 33.8815 65.662 33.2815 64.832 33.2815C64.012 33.2815 63.272 33.8415 63.272 35.0515C63.272 36.1915 63.912 36.9015 64.822 36.9015ZM72.8768 32.0915C74.1968 32.0915 74.9968 33.0615 75.1268 33.9815H74.2068C74.0768 33.3415 73.5268 32.8915 72.8168 32.8915C72.0168 32.8915 71.2668 33.5215 71.2668 34.8715C71.2668 36.2315 72.0168 36.8915 72.8168 36.8915C73.5868 36.8915 74.1168 36.3715 74.2468 35.8115H75.1868C74.9968 36.8215 74.0468 37.6915 72.7868 37.6915C71.2368 37.6915 70.2768 36.5215 70.2768 34.8815C70.2768 33.2815 71.2868 32.0915 72.8768 32.0915ZM82.6062 32.9715H80.7662V37.5615H79.8562V32.9715H78.0162V32.1815H82.6062V32.9715ZM83.5288 32.1815H85.8688C86.9488 32.1815 87.8288 32.4615 87.8288 33.5515C87.8288 34.1215 87.5788 34.5215 87.0788 34.7315C87.6388 34.8915 88.0488 35.2715 88.0488 35.9915C88.0488 37.1115 87.1788 37.5615 86.0288 37.5615H83.5288V32.1815ZM84.4388 34.4415H85.8088C86.4788 34.4415 86.8788 34.2615 86.8788 33.6515C86.8788 33.0915 86.4588 32.9715 85.7788 32.9715H84.4388V34.4415ZM84.4388 35.1915V36.7715H85.8888C86.6888 36.7715 87.0988 36.5415 87.0988 35.9815C87.0988 35.3815 86.6988 35.1915 85.8588 35.1915H84.4388ZM89.6847 34.8915C89.6847 36.3315 90.4647 36.8915 91.2947 36.8915C92.1247 36.8915 92.9047 36.2715 92.9047 34.8915C92.9047 33.4515 92.1247 32.8915 91.2947 32.8915C90.4647 32.8915 89.6847 33.4215 89.6847 34.8915ZM91.2947 32.0915C92.5447 32.0915 93.8747 32.9415 93.8747 34.8915C93.8747 36.8415 92.5447 37.6915 91.2947 37.6915C90.0447 37.6915 88.7147 36.8415 88.7147 34.8915C88.7147 32.9415 90.0447 32.0915 91.2947 32.0915ZM98.7032 37.5615V33.5015L95.9232 37.5615H95.0132V32.1815H95.9232V36.2415L98.7032 32.1815H99.6132V37.5615H98.7032ZM107.036 32.1815V37.5615H106.146V33.2415L104.416 37.5615H103.766L102.046 33.3015V37.5615H101.156V32.1815H102.456L104.126 36.3215L105.736 32.1815H107.036ZM115.141 32.1815L113.311 34.7515L115.321 37.5615H114.231L112.771 35.5115L111.321 37.5615H110.281L112.261 34.7915L110.401 32.1815H111.491L112.801 34.0315L114.121 32.1815H115.141ZM119.408 35.3115V34.9715C117.758 35.1315 116.708 35.3815 116.708 36.1215C116.708 36.6315 117.098 36.9715 117.748 36.9715C118.598 36.9715 119.408 36.5815 119.408 35.3115ZM117.548 37.6915C116.538 37.6915 115.698 37.1315 115.698 36.1415C115.698 34.8715 117.138 34.4915 119.338 34.2515V34.1215C119.338 33.1315 118.798 32.8115 118.118 32.8115C117.358 32.8115 116.928 33.2115 116.888 33.8815H115.948C116.028 32.7215 117.068 32.0715 118.108 32.0715C119.598 32.0715 120.258 32.7715 120.248 34.2915L120.238 35.5315C120.228 36.4415 120.268 37.0515 120.378 37.5615H119.458C119.428 37.3615 119.398 37.1415 119.388 36.8215C119.058 37.3815 118.508 37.6915 117.548 37.6915ZM121.654 32.1815H122.564V33.0315C122.894 32.4615 123.454 32.0915 124.324 32.0915C125.564 32.0915 126.624 33.1315 126.624 34.8915C126.624 36.6815 125.564 37.6915 124.324 37.6915C123.454 37.6915 122.894 37.3215 122.564 36.7515V39.3115H121.654V32.1815ZM122.524 34.8915C122.524 36.3115 123.284 36.9115 124.094 36.9115C125.024 36.9115 125.634 36.1815 125.634 34.8915C125.634 33.6015 125.024 32.8715 124.094 32.8715C123.284 32.8715 122.524 33.4715 122.524 34.8915ZM131.088 35.3115V34.9715C129.438 35.1315 128.388 35.3815 128.388 36.1215C128.388 36.6315 128.778 36.9715 129.428 36.9715C130.278 36.9715 131.088 36.5815 131.088 35.3115ZM129.228 37.6915C128.218 37.6915 127.378 37.1315 127.378 36.1415C127.378 34.8715 128.818 34.4915 131.018 34.2515V34.1215C131.018 33.1315 130.478 32.8115 129.798 32.8115C129.038 32.8115 128.608 33.2115 128.568 33.8815H127.628C127.708 32.7215 128.748 32.0715 129.788 32.0715C131.278 32.0715 131.938 32.7715 131.928 34.2915L131.918 35.5315C131.908 36.4415 131.948 37.0515 132.058 37.5615H131.138C131.108 37.3615 131.078 37.1415 131.068 36.8215C130.738 37.3815 130.188 37.6915 129.228 37.6915ZM136.793 37.5615L134.943 35.1715H134.253V37.5615H133.333V32.1815H134.253V34.3815H134.923L136.633 32.1815H137.713L135.683 34.7215L137.923 37.5615H136.793ZM142.762 32.9715H140.922V37.5615H140.012V32.9715H138.172V32.1815H142.762V32.9715ZM148.209 35.1715H144.069C144.099 36.3315 144.939 36.8915 145.729 36.8915C146.529 36.8915 146.969 36.5315 147.199 36.0015H148.139C147.899 36.9215 147.039 37.6915 145.729 37.6915C144.029 37.6915 143.089 36.4715 143.089 34.8815C143.089 33.1715 144.229 32.0915 145.699 32.0915C147.349 32.0915 148.319 33.4615 148.209 35.1715ZM145.699 32.8715C144.899 32.8715 144.159 33.3115 144.079 34.3915H147.249C147.219 33.6315 146.669 32.8715 145.699 32.8715ZM149.33 32.1815H150.24V33.0315C150.57 32.4615 151.13 32.0915 152 32.0915C153.24 32.0915 154.3 33.1315 154.3 34.8915C154.3 36.6815 153.24 37.6915 152 37.6915C151.13 37.6915 150.57 37.3215 150.24 36.7515V39.3115H149.33V32.1815ZM150.2 34.8915C150.2 36.3115 150.96 36.9115 151.77 36.9115C152.7 36.9115 153.31 36.1815 153.31 34.8915C153.31 33.6015 152.7 32.8715 151.77 32.8715C150.96 32.8715 150.2 33.4715 150.2 34.8915ZM156.071 34.8915C156.071 36.3315 156.851 36.8915 157.681 36.8915C158.511 36.8915 159.291 36.2715 159.291 34.8915C159.291 33.4515 158.511 32.8915 157.681 32.8915C156.851 32.8915 156.071 33.4215 156.071 34.8915ZM157.681 32.0915C158.931 32.0915 160.261 32.9415 160.261 34.8915C160.261 36.8415 158.931 37.6915 157.681 37.6915C156.431 37.6915 155.101 36.8415 155.101 34.8915C155.101 32.9415 156.431 32.0915 157.681 32.0915ZM167.28 32.1815V37.5615H166.39V33.2415L164.66 37.5615H164.01L162.29 33.3015V37.5615H161.4V32.1815H162.7L164.37 36.3215L165.98 32.1815H167.28ZM62.7369 44.7415C63.3069 44.9015 63.8269 45.3115 63.8269 46.0315C63.8269 47.1915 62.7569 47.6915 61.5569 47.6915C60.4069 47.6915 59.4569 47.1515 59.2669 45.9215H60.1869C60.3369 46.6115 60.8469 46.9315 61.6169 46.9315C62.3769 46.9315 62.8569 46.5815 62.8569 46.0715C62.8569 45.4415 62.4469 45.1915 61.6869 45.1915H60.8269V44.4415H61.6369C62.2669 44.4415 62.6469 44.1615 62.6469 43.6015C62.6469 43.0915 62.1869 42.8615 61.5969 42.8615C60.9269 42.8615 60.4169 43.1115 60.2969 43.8415H59.3569C59.5469 42.6715 60.4169 42.0615 61.5469 42.0615C62.6069 42.0615 63.5869 42.5715 63.5869 43.5815C63.5869 44.1315 63.2169 44.5115 62.7369 44.7415ZM68.2457 45.3115V44.9715C66.5957 45.1315 65.5457 45.3815 65.5457 46.1215C65.5457 46.6315 65.9357 46.9715 66.5857 46.9715C67.4357 46.9715 68.2457 46.5815 68.2457 45.3115ZM66.3857 47.6915C65.3757 47.6915 64.5357 47.1315 64.5357 46.1415C64.5357 44.8715 65.9757 44.4915 68.1757 44.2515V44.1215C68.1757 43.1315 67.6357 42.8115 66.9557 42.8115C66.1957 42.8115 65.7657 43.2115 65.7257 43.8815H64.7857C64.8657 42.7215 65.9057 42.0715 66.9457 42.0715C68.4357 42.0715 69.0957 42.7715 69.0857 44.2915L69.0757 45.5315C69.0657 46.4415 69.1057 47.0515 69.2157 47.5615H68.2957C68.2657 47.3615 68.2357 47.1415 68.2257 46.8215C67.8957 47.3815 67.3457 47.6915 66.3857 47.6915ZM77.2947 42.1815V47.5615H76.3847V42.9715H73.7747V47.5615H72.8647V42.1815H77.2947ZM82.1715 45.3115V44.9715C80.5215 45.1315 79.4715 45.3815 79.4715 46.1215C79.4715 46.6315 79.8615 46.9715 80.5115 46.9715C81.3615 46.9715 82.1715 46.5815 82.1715 45.3115ZM80.3115 47.6915C79.3015 47.6915 78.4615 47.1315 78.4615 46.1415C78.4615 44.8715 79.9015 44.4915 82.1015 44.2515V44.1215C82.1015 43.1315 81.5615 42.8115 80.8815 42.8115C80.1215 42.8115 79.6915 43.2115 79.6515 43.8815H78.7115C78.7915 42.7215 79.8315 42.0715 80.8715 42.0715C82.3615 42.0715 83.0215 42.7715 83.0115 44.2915L83.0015 45.5315C82.9915 46.4415 83.0315 47.0515 83.1415 47.5615H82.2215C82.1915 47.3615 82.1615 47.1415 82.1515 46.8215C81.8215 47.3815 81.2715 47.6915 80.3115 47.6915ZM84.4175 42.1815H85.3275V43.0315C85.6575 42.4615 86.2175 42.0915 87.0875 42.0915C88.3275 42.0915 89.3875 43.1315 89.3875 44.8915C89.3875 46.6815 88.3275 47.6915 87.0875 47.6915C86.2175 47.6915 85.6575 47.3215 85.3275 46.7515V49.3115H84.4175V42.1815ZM85.2875 44.8915C85.2875 46.3115 86.0475 46.9115 86.8575 46.9115C87.7875 46.9115 88.3975 46.1815 88.3975 44.8915C88.3975 43.6015 87.7875 42.8715 86.8575 42.8715C86.0475 42.8715 85.2875 43.4715 85.2875 44.8915ZM90.0936 49.3115V48.5515H90.4636C91.0636 48.5515 91.3536 48.5115 91.5936 47.6715L91.6336 47.5615L89.6936 42.1815H90.7036L92.0736 46.3315L93.4036 42.1815H94.3536L92.4336 47.7915C92.0336 48.9515 91.7736 49.3115 90.5636 49.3115H90.0936ZM101.002 47.5615L99.1525 45.1715H98.4625V47.5615H97.5425V42.1815H98.4625V44.3815H99.1325L100.842 42.1815H101.922L99.8925 44.7215L102.132 47.5615H101.002ZM107.251 42.1815V47.5615H106.341V42.9715H104.531L104.451 44.2715C104.321 46.4415 103.851 47.5615 102.601 47.5615H102.431V46.7715H102.531C103.011 46.7715 103.471 46.2515 103.581 44.0215L103.661 42.1815H107.251ZM112.482 47.5615V43.5015L109.702 47.5615H108.792V42.1815H109.702V46.2415L112.482 42.1815H113.392V47.5615H112.482ZM118.395 47.5615L116.545 45.1715H115.855V47.5615H114.935V42.1815H115.855V44.3815H116.525L118.235 42.1815H119.315L117.285 44.7215L119.525 47.5615H118.395ZM120.769 44.8915C120.769 46.3315 121.549 46.8915 122.379 46.8915C123.209 46.8915 123.989 46.2715 123.989 44.8915C123.989 43.4515 123.209 42.8915 122.379 42.8915C121.549 42.8915 120.769 43.4215 120.769 44.8915ZM122.379 42.0915C123.629 42.0915 124.959 42.9415 124.959 44.8915C124.959 46.8415 123.629 47.6915 122.379 47.6915C121.129 47.6915 119.799 46.8415 119.799 44.8915C119.799 42.9415 121.129 42.0915 122.379 42.0915ZM126.097 42.1815H128.437C129.517 42.1815 130.397 42.4615 130.397 43.5515C130.397 44.1215 130.147 44.5215 129.647 44.7315C130.207 44.8915 130.617 45.2715 130.617 45.9915C130.617 47.1115 129.747 47.5615 128.597 47.5615H126.097V42.1815ZM127.007 44.4415H128.377C129.047 44.4415 129.447 44.2615 129.447 43.6515C129.447 43.0915 129.027 42.9715 128.347 42.9715H127.007V44.4415ZM127.007 45.1915V46.7715H128.457C129.257 46.7715 129.667 46.5415 129.667 45.9815C129.667 45.3815 129.267 45.1915 128.427 45.1915H127.007Z" fill="white"/>
</svg>
