<svg width="24" height="23" viewBox="0 0 24 23" fill="none" xmlns="http://www.w3.org/2000/svg">
<rect x="0.5" width="23" height="23" rx="6" fill="#3A4651"/>
<path d="M14.8329 10.5226C13.024 10.5226 11.8131 9.29697 11.8131 7.8277C11.8131 6.35843 13.024 5.13281 14.8329 5.13281C16.6491 5.13281 17.86 6.35843 17.86 7.8277C17.86 9.29697 16.6491 10.5226 14.8329 10.5226ZM14.8329 9.71043C16.184 9.71043 16.974 8.89827 16.974 7.8277C16.974 6.75713 16.184 5.94497 14.8329 5.94497C13.4817 5.94497 12.6991 6.75713 12.6991 7.8277C12.6991 8.89827 13.4817 9.71043 14.8329 9.71043Z" fill="#F1F1F1"/>
<path d="M17.8602 7.82674C17.8602 6.38042 16.6869 5.17019 14.9178 5.13273L14.8331 5.13183C13.0242 5.13183 11.8133 6.35747 11.8133 7.82674L11.8142 7.89542C11.8508 9.31116 13.0146 10.4838 14.7487 10.5207L14.8331 10.5216C16.621 10.5216 17.8222 9.33399 17.8593 7.89542L17.8602 7.82674ZM16.8424 7.82674C16.8424 7.32518 16.6581 6.89079 16.3211 6.58095C15.9835 6.27056 15.4822 6.0758 14.8331 6.07579C14.184 6.07579 13.6847 6.2705 13.349 6.5807C13.0139 6.89037 12.8311 7.3248 12.8311 7.82674C12.8311 8.32867 13.0139 8.76306 13.349 9.07272C13.6847 9.38291 14.184 9.57763 14.8331 9.57763V9.70945L14.7702 9.70887C13.4785 9.68442 12.7235 8.90586 12.6999 7.87669L12.6993 7.82674C12.6993 6.75617 13.482 5.94396 14.8331 5.94396L14.896 5.94461C16.2087 5.96946 16.9742 6.77289 16.9742 7.82674L16.9736 7.87669C16.9494 8.92245 16.1631 9.70944 14.8331 9.70945V9.57763C15.4822 9.57762 15.9835 9.38291 16.3211 9.07253C16.6581 8.7627 16.8424 8.3283 16.8424 7.82674ZM17.9921 7.82674C17.9921 9.37827 16.7123 10.6534 14.8331 10.6534C12.9611 10.6534 11.6815 9.37807 11.6815 7.82674C11.6815 6.2754 12.9611 5 14.8331 5C16.7123 5.00001 17.9921 6.2752 17.9921 7.82674Z" fill="#F1F1F1"/>
<path d="M6.69031 5.24219H7.5763V9.59831H10.6108L10.7585 10.4105H6.69031V5.24219Z" fill="#F1F1F1"/>
<path d="M7.57614 5.24315H6.69018V10.4114H10.7583L10.6107 9.59929H7.57614V5.24315ZM7.70797 9.46746H10.7207L10.9163 10.5433H6.55835V5.11133H7.70797V9.46746Z" fill="#F1F1F1"/>
<path d="M8.65171 17.466C6.84281 17.466 5.63196 16.2403 5.63196 14.7711C5.63196 13.3018 6.84281 12.0762 8.65171 12.0762C10.468 12.0762 11.6788 13.3018 11.6788 14.7711C11.6788 16.2403 10.468 17.466 8.65171 17.466ZM8.65171 16.6538C10.0028 16.6538 10.7929 15.8416 10.7929 14.7711C10.7929 13.7005 10.0028 12.8883 8.65171 12.8883C7.30057 12.8883 6.51795 13.7005 6.51795 14.7711C6.51795 15.8416 7.30057 16.6538 8.65171 16.6538Z" fill="#F1F1F1"/>
<path d="M11.6787 14.7701C11.6787 13.3238 10.5054 12.1135 8.73625 12.0761L8.65161 12.0752C6.84271 12.0752 5.63183 13.3008 5.63183 14.7701L5.63273 14.8388C5.66925 16.2545 6.83311 17.4272 8.56722 17.464L8.65161 17.4649C10.4395 17.4649 11.6407 16.2773 11.6778 14.8388L11.6787 14.7701ZM10.6609 14.7701C10.6609 14.2685 10.4766 13.8341 10.1396 13.5243C9.80201 13.2139 9.30071 13.0192 8.65161 13.0191C8.00251 13.0191 7.50315 13.2139 7.16746 13.5241C6.83235 13.8337 6.64962 14.2682 6.64962 14.7701C6.64963 15.272 6.83236 15.7064 7.16746 16.0161C7.50315 16.3263 8.00251 16.521 8.65161 16.521V16.6528L8.58866 16.6522C7.297 16.6278 6.54201 15.8492 6.51837 14.8201L6.51779 14.7701C6.51779 13.6995 7.30047 12.8873 8.65161 12.8873L8.7145 12.888C10.0272 12.9128 10.7927 13.7163 10.7927 14.7701L10.7921 14.8201C10.7679 15.8658 9.98162 16.6528 8.65161 16.6528V16.521C9.30071 16.521 9.80201 16.3263 10.1396 16.0159C10.4766 15.7061 10.6609 15.2717 10.6609 14.7701ZM11.8106 14.7701C11.8105 16.3216 10.5308 17.5968 8.65161 17.5968C6.77954 17.5968 5.50001 16.3214 5.5 14.7701C5.5 13.2188 6.77953 11.9434 8.65161 11.9434C10.5308 11.9434 11.8106 13.2186 11.8106 14.7701Z" fill="#F1F1F1"/>
<path d="M13.0906 12.1816H13.9783V14.1717L16.9301 12.1816H18.3356L15.9831 13.7722L18.3874 17.3601H17.3147L15.2729 14.253L13.9783 15.126V17.3601H13.0906V12.1816Z" fill="#F1F1F1"/>
<path d="M13.0907 12.1807V17.3592H13.9785V15.125L15.273 14.252L17.3149 17.3592H18.3876L15.9832 13.7712L18.3358 12.1807H16.9301L13.9785 14.1707V12.1807H13.0907ZM14.1103 13.9228L16.8899 12.0488H18.7661L16.1658 13.8068L18.6346 17.491H17.2437L15.2361 14.4359L14.1103 15.1951V17.491H12.9589V12.0488H14.1103V13.9228Z" fill="#F1F1F1"/>
</svg>
