<svg width="21" height="20" viewBox="0 0 21 20" fill="none" xmlns="http://www.w3.org/2000/svg">
<path d="M3.0531 18.9411C3.48481 17.2098 4.47372 15.6684 5.86753 14.5542C7.26135 13.4401 8.98277 12.8151 10.7667 12.7754C12.5506 12.7358 14.2981 13.2837 15.7401 14.3347C17.182 15.3858 18.2385 17.2899 18.7467 19.0004" fill="#3A4651"/>
<path d="M11.2917 9.36523H10.5045C9.51812 9.36523 8.57214 8.9734 7.87466 8.27593C7.17718 7.57845 6.78535 6.63247 6.78535 5.64609V5.30567C6.78535 4.2369 7.20991 3.21189 7.96564 2.45616C8.72138 1.70043 9.74637 1.27587 10.8151 1.27587C11.3668 1.27531 11.9132 1.38357 12.4231 1.59445C12.9329 1.80532 13.3961 2.11466 13.7862 2.50478C14.1763 2.8949 14.4857 3.35812 14.6966 3.86794C14.9074 4.37776 15.0157 4.92416 15.0151 5.47587V5.64609C15.0151 6.63247 14.6233 7.57845 13.9258 8.27593C13.2283 8.9734 12.2824 9.36523 11.296 9.36523H11.2917Z" fill="#3A4651" stroke="#3A4651" stroke-linecap="round" stroke-linejoin="round"/>
</svg>
